<svg id="Layer_1" enable-background="new 0 0 256 256" height="512" viewBox="0 0 256 256" width="512" xmlns="http://www.w3.org/2000/svg"><g id="Layer_54"><g><circle cx="212" cy="128.4" fill="#f5c84c" r="3.1"/><circle cx="88" cy="184.4" fill="#87d147" r="3.1"/><circle cx="191" cy="62.4" fill="#fc657e" r="3.1"/><path d="m85.8 161.3c-4.3-.8-7.8-4.1-8.6-8.5 0-.1-.1-.2-.2-.2s-.1.1-.2.2c-.9 4.3-4.3 7.7-8.6 8.5-.1 0-.2.1-.2.2s.1.1.2.2c4.3.8 7.8 4.1 8.6 8.5 0 .1.1.2.2.2s.1-.1.2-.2c.9-4.3 4.3-7.7 8.6-8.5.1 0 .2-.1.2-.2s-.1-.2-.2-.2z" fill="#f5c84c"/><path d="m207.9 80h-2.1v-2.1c0-1.6-1.3-2.9-2.9-2.9s-2.9 1.3-2.9 2.9v2.1h-2.1c-1.6 0-2.9 1.3-2.9 2.9s1.3 2.9 2.9 2.9h2.1v2.2c0 1.6 1.3 2.9 2.9 2.9s2.9-1.3 2.9-2.9v-2.1h2.1c1.6 0 2.9-1.3 2.9-2.9 0-1.7-1.3-3-2.9-3z" fill="#70d6f9"/><path d="m185.6 95.4h-52.7c-1 0-1.9.8-1.9 1.8v7.4h56.5v-7.4c0-1-.9-1.8-1.9-1.8z" fill="#dae6f1"/><path d="m202.4 139.6c-7.5-27.7-14.9-35-14.9-35h-56.5s-7.5 7.3-14.9 35c-5.9 22-11.3 80.6-13.2 103.7-.1 1.1.6 2.2 1.7 2.6 4.6 1 7.1 3.8 11.8 4.6 4.6.7 9.8-2.2 14.6-1.7 4.7.5 9.1 4.4 13.9 4.6 4.7.2 9.5-3.2 14.4-3.2s9.7 3.4 14.4 3.2c4.8-.2 9.2-4.2 13.9-4.6 4.8-.5 10 2.4 14.6 1.7 4.8-.8 7.3-3.6 11.8-4.6 1.1-.4 1.8-1.4 1.7-2.6-2-23.1-7.3-81.7-13.3-103.7z" fill="#edf4fc"/><path d="m114 148.8c.7-3.5 1.4-6.6 2.1-9.2 7.5-27.7 14.9-35 14.9-35v-7.4c0-1 .9-1.9 1.9-1.8h26v-33.7l2.7 2.7c.9.9 2.2 1 3.2.2l20.7-15.3c1.1-.8 1.3-2.2.6-3.3-3.6-5.5-14.5-21.3-28.2-32.7-2.5-2.1-5.3-3.8-8.2-5.2l-6.7-3.2c-3.4-1.6-7.2-2.4-11-2.4h-37.1c-3.8 0-7.5.8-11 2.4l-6.8 3.2c-2.9 1.4-5.7 3.1-8.2 5.2-13.7 11.4-24.6 27.2-28.2 32.7-.7 1.1-.5 2.6.6 3.3l20.7 15.3c1 .7 2.4.6 3.2-.2l2.7-2.7v75.1c4.3 2.7 8.9 5 13.8 6.6 10.4 3.6 21.3 5.5 32.3 5.4z" fill="#edf4fc"/><path d="m164.9 64.7 20.7-15.3c1.1-.8 1.3-2.2.6-3.3-6.6-10.2-14.4-19.6-23.1-28.1-1.8 3.5-3 7.2-3.7 11.1-1.4 8.3-.5 32.8-.5 32.8l2.7 2.7c.9.7 2.3.8 3.3.1z" fill="#9be5f9"/><path d="m62.1 64.7-20.8-15.4c-1.1-.8-1.3-2.2-.6-3.3 6.6-10.2 14.4-19.6 23.1-28.1 1.8 3.5 3 7.2 3.7 11.1 1.4 8.3.5 32.8.5 32.8l-2.7 2.7c-.9.8-2.2.9-3.2.2z" fill="#9be5f9"/><path d="m125.5 53c-3.2-3.2-8.5-3.2-11.7 0-.2.2-.5.2-.6 0-3.2-3.2-8.5-3.2-11.7 0-3.2 3.2-3.2 8.5 0 11.7l10.4 10.4c.9.9 2.4.9 3.3 0l10.4-10.4c3.1-3.2 3.1-8.5-.1-11.7z" fill="#fc657e"/><path d="m132 2.5h-37.1c-3 0-6.1.5-8.9 1.6 1.4 16.1 13.2 28.8 27.5 28.8s26.1-12.6 27.5-28.8c-2.9-1.1-5.9-1.6-9-1.6z" fill="#9be5f9"/><path d="m113.5 2.5h-17.9c.7 11.5 8.4 20.7 17.9 20.7s17.2-9.1 17.9-20.7z" fill="#70d6f9"/><path d="m202.1 200.3c-4.6.7-9.8-2.2-14.6-1.7-4.7.5-9.1 4.4-13.9 4.6-4.7.2-9.5-3.2-14.4-3.2s-9.7 3.4-14.4 3.2c-4.8-.2-9.2-4.2-13.9-4.6-4.8-.5-10 2.4-14.6 1.7-3.7-.6-6-2.4-9-3.7-2 18.4-3.6 36.2-4.5 46.8-.1 1.1.6 2.2 1.7 2.6 4.6 1 7.1 3.8 11.8 4.6 4.6.7 9.8-2.2 14.6-1.7 4.7.5 9.1 4.4 13.9 4.6 4.7.2 9.5-3.2 14.4-3.2s9.7 3.4 14.4 3.2c4.8-.2 9.2-4.2 13.9-4.6 4.8-.5 10 2.4 14.6 1.7 4.8-.8 7.3-3.6 11.8-4.6 1.1-.4 1.8-1.4 1.7-2.6-.9-10.5-2.5-28.4-4.5-46.8-2.9 1.3-5.3 3.1-9 3.7z" fill="#ef4460"/><path d="m131 223.6c4.7.5 9.1 4.4 13.9 4.6 4.7.2 9.5-3.2 14.4-3.2s9.7 3.4 14.4 3.2c4.8-.2 9.2-4.2 13.9-4.6 4.8-.5 10 2.4 14.6 1.7s7.2-3.4 11.5-4.5c-.7-7.5-1.5-15.8-2.5-24.2-3 1.3-5.3 3.1-9 3.7-4.6.7-9.8-2.2-14.6-1.7-4.7.5-9.1 4.4-13.9 4.6-4.7.2-9.5-3.2-14.4-3.2s-9.7 3.4-14.4 3.2c-4.8-.2-9.2-4.2-13.9-4.6-4.8-.5-10 2.4-14.6 1.7-3.7-.6-6-2.4-9-3.7-.9 8.4-1.8 16.7-2.5 24.2 4.3 1.1 6.9 3.8 11.5 4.5 4.5.7 9.8-2.2 14.6-1.7z" fill="#fc657e"/><path d="m131 211.1c4.7.5 9.1 4.4 13.9 4.6 4.7.2 9.5-3.2 14.4-3.2s9.7 3.4 14.4 3.2c4.8-.2 9.2-4.2 13.9-4.6 4.8-.5 10 2.4 14.6 1.7 4.2-.7 6.7-3 10.3-4.2-.4-3.9-.8-8-1.3-12-3 1.3-5.3 3.1-9 3.7-4.6.7-9.8-2.2-14.6-1.7-4.7.5-9.1 4.4-13.9 4.6-4.7.2-9.5-3.2-14.4-3.2s-9.7 3.4-14.4 3.2c-4.8-.2-9.2-4.2-13.9-4.6-4.8-.5-10 2.4-14.6 1.7-3.7-.6-6-2.4-9-3.7-.4 4.1-.9 8.1-1.3 12 3.7 1.2 6.1 3.5 10.3 4.2 4.5.7 9.8-2.2 14.6-1.7z" fill="#f98fa6"/><path d="m179.9 110.5c-.6-1.3-2-1.8-3.3-1.3-1.3.6-1.8 2-1.3 3.3.1.1 5.3 12.4 8 34.1.2 1.4 1.4 2.3 2.8 2.1 1.3-.2 2.3-1.4 2.2-2.8-2.8-22.3-8.2-34.9-8.4-35.4z"/><path d="m141.9 109.2c-1.3-.5-2.7 0-3.3 1.3-.2.5-5.6 13.1-8.3 35.5-.2 1.4.8 2.6 2.1 2.8s2.6-.8 2.8-2.1c0 0 0 0 0-.1 2.6-21.6 7.9-34 8-34.1.5-1.3-.1-2.7-1.3-3.3z"/><path d="m164.4 109c-1.4.3-2.2 1.6-2 2.9 0 .1 2.3 12.6 3.7 34.5.1 1.3 1.2 2.3 2.5 2.3h.2c1.4-.1 2.4-1.3 2.3-2.6-1.4-22.2-3.7-34.6-3.8-35.1-.3-1.4-1.6-2.3-2.9-2z"/><path d="m153.6 109.1c-1.4-.2-2.6.7-2.9 2.1-.1.5-2.1 12.9-2.9 35.2-.1 1.4 1 2.5 2.4 2.6h.1c1.3 0 2.4-1.1 2.5-2.4.8-21.9 2.8-34.4 2.8-34.5.3-1.5-.7-2.8-2-3z"/><path d="m116.9 76.9 10.4-10.4c4.2-4.2 4.2-11 0-15.3-3.7-3.7-9.5-4.2-13.8-1.2-4.9-3.4-11.6-2.2-15 2.7-3 4.3-2.5 10.1 1.2 13.8l10.3 10.4c1.9 1.8 5 1.8 6.9 0zm-13.7-13.9c-2.3-2.3-2.2-5.9 0-8.2 2.3-2.2 5.9-2.2 8.2 0 1.2 1.1 3 1.1 4.2 0 2.3-2.3 5.9-2.3 8.2 0s2.3 5.9 0 8.2l-10.3 10.3z"/><path d="m100.3 243.2c-.2 2.4 1.4 4.6 3.7 5.2 4.1.9 6.7 3.8 12 4.6s10.5-2.1 14.8-1.7c4.2.4 8.9 4.7 14.6 4.7 5.1 0 9.8-3.2 13.9-3.2 4.3 0 9.1 3.5 14.5 3.2s10-4.2 14-4.7c4.1-.4 9.1 2.3 14.2 1.7 5.4-.6 8.4-3.8 12.6-4.7 2.3-.6 3.8-2.8 3.7-5.2-1.9-23-7.3-81.9-13.3-104.2-6.3-23.3-12.7-32.6-14.9-35.3v-6.4c0-2.4-2-4.3-4.4-4.3h-24.1v-25.7c1.6.7 3.5.5 4.9-.6l20.7-15.3c2.1-1.6 2.7-4.5 1.2-6.7-7.6-11.6-18-24.4-28.7-33.2-5.8-4.8-10.7-6.3-15.6-8.7-5.5-2.6-9.9-2.5-12.7-2.7h-35.8c-4.4-.1-8.7.8-12.7 2.7-5 2.5-9.8 3.9-15.6 8.7-10.6 8.8-21.1 21.6-28.7 33.2-1.4 2.2-.9 5.2 1.2 6.7l20.7 15.3c1.4 1 3.3 1.3 4.9.6v69.5c0 .8.4 1.6 1.1 2.1 9.1 6.1 26 12 44.3 12.4-4.4 25.1-8.4 66.7-10.5 92zm44.4-37.5c5.7.3 10.7-3.6 15.2-3.2 4.1.4 8.7 3.4 13.8 3.2 5.5-.3 9.9-4.2 14-4.7 4.3-.4 9.5 2.5 14.8 1.7 2.3-.4 4.5-1.2 6.5-2.3.2 2.2.5 4.4.7 6.6-6.8 3-6.5 4.4-14.5 2.6-7-1.6-9.1-1.4-15.4 1.6-5.9 2.7-6.9 2.7-12.8.7-6.8-2.4-8.9-2.4-15.7 0-5.9 2-6.9 2.1-12.8-.7-6.3-2.9-8.3-3.2-15.4-1.6-8 1.9-7.7.5-14.5-2.6.2-1.7.4-3.7.7-6.6 11.6 6 15.7-1 22.7.9 3.8 1.1 7.9 4.2 12.7 4.4zm-36.5 6.6c2.4 1.4 5 2.4 7.8 3 5.3.8 10.5-2.1 14.8-1.7 4.1.4 8.6 4.4 14 4.7s10.2-3.2 14.5-3.2c4.2 0 9.1 3.5 14.5 3.2s10-4.2 14-4.7c4.3-.4 9.5 2.5 14.8 1.7 2.7-.5 5.4-1.5 7.7-3 .2 2.3.4 4.5.7 6.7-3.5 1.3-5.7 3.3-9.2 3.8-3.9.6-9.2-2.3-14.5-1.7-5.2.5-9.7 4.4-13.8 4.6-1.9.1-4.1-.7-6.4-1.4-2.5-1-5.1-1.6-7.8-1.8-5.3 0-10.2 3.4-14.2 3.2-4.1-.2-8.6-4.1-13.8-4.6-5.3-.5-10.6 2.3-14.5 1.7-3.5-.5-5.7-2.5-9.2-3.8.1-2.3.3-4.5.6-6.7zm93.5 35.8c-3.9.6-9.2-2.3-14.5-1.7-5.1.5-9.7 4.4-13.8 4.6-4 .2-8.9-3.2-14.2-3.2-5.2 0-10.3 3.4-14.2 3.2-4.1-.2-8.6-4.1-13.8-4.6-5.3-.6-10.5 2.3-14.5 1.7-4.1-.7-6.6-3.4-11.4-4.5.5-6.1 1.1-12.7 1.7-19.3 7.1 3.3 8.3 4.8 17.4 2.7 5.9-1.4 6.9-1.3 12.2 1.2 7 3.3 9.3 3.4 16.5.9 5.7-2 6.7-2 12.4 0 7.1 2.5 9.4 2.4 16.5-.9 5.3-2.5 6.2-2.6 12.2-1.2 8.8 2 9.9.8 17.3-2.7.7 7.5 1.3 14.2 1.7 19.3-4.8 1.1-7.4 3.8-11.5 4.5zm6.8-53c-1.1.6-1.7.9-2.5 1.3-9.7 4.8-12.5-3.8-24.4 1.4-6.6 2.9-7.3 4-13.7 1.8-7.3-2.5-9.1-2.9-16.5-.3-6.2 2.2-7.2 1.9-12.8-.7-6.3-2.9-8.3-3.2-15.4-1.6-6.6 1.5-7.1 1.1-13.3-1.9 1.4-12.3 4-33.7 6.4-45.8s8.7-33.2 15.7-42.2h54.2c1.9 2.4 7.8 11.3 13.7 33.1 3.2 11.6 6.2 33.4 8.6 54.9zm-23.5-93h-51.5v-4.2h51.5zm-21.6-39.5-2-2c-.1-4.6-.7-24.2.5-31.3.4-2.5 1.1-4.9 2-7.2 7.5 7.7 14.3 16.2 20.2 25.2zm-25.2-56.8c-2 14.1-12.4 24.5-24.7 24.5s-22.8-10.4-24.8-24.5c1.5-.4 3.1-.7 4.6-.8 1.6 11.7 10.1 20.6 20.1 20.6s18.5-8.9 20.1-20.6c1.7.2 3.2.4 4.7.8zm-9.7-.8c-1.5 9-7.7 15.7-15.1 15.7s-13.5-6.7-15-15.7zm-65.5 17.1c.9 2.3 1.6 4.7 2 7.2 1.2 7.1.7 26.7.5 31.3l-2 2-20.7-15.3c5.9-9 12.7-17.4 20.2-25.2zm48.9 124.2c-16.9-.3-32.7-5.6-41.4-10.9v-73.7c.1-1.5.9-24.8-.6-33.2-.6-3.5-1.6-6.9-3.1-10.1 1.2-1.1 2.4-2.2 3.7-3.2 5.1-4.2 9.4-5.5 13.5-7.5 2.8 16 15 27.7 29.5 27.7s26.7-11.7 29.5-27.7c4.3 2.2 8.4 3.4 13.4 7.5 1.3 1 2.5 2.1 3.7 3.2-1.5 3.2-2.5 6.6-3.1 10.1-1.4 8.4-.6 31.8-.6 33.2v31.2h-23.5c-2.4 0-4.4 1.9-4.4 4.3v6.4c-7.8 9.7-14 30.6-16.6 42.7z"/></g></g></svg>