<svg id="Layer_1" enable-background="new 0 0 256 256" height="512" viewBox="0 0 256 256" width="512" xmlns="http://www.w3.org/2000/svg"><g id="Layer_58"><g><path d="m140.8 93.5c-1-2.5-.3-5.3 1.7-7.1.3-.3.4-.8.2-1.2-1.5-2.2-1.3-5.1.3-7.3.1-.1.2-.2.3-.3v-37.7c0-8.3-6.7-14-15-14h-110.8c-8.3 0-15 5.7-15 14v146.4c0 8.3 6.7 15 15 15h85.3c-.1-.6-.1-1.2-.1-1.8v-25.1c0-8.3 6.7-15 15-15h25.6v-63c-1.1-.7-2-1.7-2.5-2.9z" fill="#f9bd95"/><path d="m128.2 35.8h-110.6c-2.8 0-5.1 2.3-5.1 5.1v25.8h120.7v-25.8c.1-2.8-2.2-5.1-5-5.1z" fill="#fca265"/><path d="m12.5 66.7h120.7v30.9h-120.7z" fill="#fca265"/><path d="m12.5 97.6h120.7v30.9h-120.7z" fill="#fca265"/><path d="m12.5 128.5h120.7v30.9h-120.7z" fill="#fca265"/><path d="m102.7 174.3c0-8.3 6.7-15 15-15h-105.2v27c0 2.7 2.2 5 5 5h85.2z" fill="#fca265"/><path d="m55.7 44.5h33.4c2.6 0 4.6-2.1 4.6-4.6v-4h-42.7v4c0 2.5 2.1 4.6 4.7 4.6z" fill="#fc8c48"/><path d="m55.7 75.4h33.4c2.6 0 4.6-2.1 4.6-4.6v-4h-42.7v4c0 2.5 2.1 4.6 4.7 4.6z" fill="#fc8c48"/><path d="m55.7 106.3h33.4c2.6 0 4.6-2.1 4.6-4.6v-4h-42.7v4c0 2.5 2.1 4.6 4.7 4.6z" fill="#fc8c48"/><path d="m55.7 137.2h33.4c2.6 0 4.6-2.1 4.6-4.6v-4h-42.7v4c0 2.5 2.1 4.6 4.7 4.6z" fill="#fc8c48"/><path d="m55.7 168h33.4c2.6 0 4.6-2.1 4.6-4.6v-4h-42.7v4c0 2.6 2.1 4.6 4.7 4.6z" fill="#fc8c48"/><path d="m165.8 128.5h24.4c2.4 0 4.3 1.9 4.3 4.3v22.3c0 2.4-1.9 4.3-4.3 4.3h-24.4c-2.4 0-4.3-1.9-4.3-4.3v-22.3c0-2.4 1.9-4.3 4.3-4.3z" fill="#edf4fc"/><path d="m213.2 85.2c1.9-2.9 1.1-6.8-1.8-8.7-1.6-1-3.6-1.3-5.4-.7-.4.1-.9 0-1.1-.4-1.6-3.1-5.3-4.3-8.4-2.7-1.7.9-2.9 2.5-3.3 4.4-.1.4-.5.7-.9.7-3.4-.2-6.4 2.5-6.6 5.9-.1 1.9.7 3.8 2.1 5 .3.3.4.8.2 1.2-1.9 2.9-1.1 6.8 1.8 8.7 1.6 1 3.6 1.3 5.4.7.4-.1.9 0 1.1.4 1.6 3.1 5.3 4.3 8.4 2.7 1.7-.9 2.9-2.5 3.3-4.4.1-.4.5-.7.9-.7 3.4.2 6.4-2.5 6.6-5.9.1-1.9-.7-3.8-2.1-5-.3-.3-.4-.8-.2-1.2z" fill="#f5c84c"/><path d="m142.7 85.3c-1.9-2.9-1.1-6.8 1.8-8.7 1.6-1 3.6-1.3 5.4-.7.4.1.9 0 1.1-.4 1.6-3.1 5.3-4.3 8.4-2.7 1.7.9 2.9 2.5 3.3 4.4.1.4.5.7.9.7 3.4-.2 6.4 2.5 6.6 5.9.1 1.9-.7 3.8-2.1 5-.3.3-.4.8-.2 1.2 1.9 2.9 1.1 6.8-1.8 8.7-1.6 1-3.6 1.3-5.4.7-.4-.1-.9 0-1.1.4-1.6 3.1-5.3 4.3-8.4 2.7-1.7-.9-2.9-2.5-3.3-4.4-.1-.4-.5-.7-.9-.7-3.4.2-6.4-2.5-6.6-5.9-.1-1.9.7-3.8 2.1-5 .3-.4.4-.9.2-1.2z" fill="#f5c84c"/><path d="m202.3 113.2c-3.7-5.2-10.8-6.4-16-2.7-1 .7-1.9 1.6-2.7 2.7-.6.8-.6 1.8 0 2.6 3.7 5.2 10.8 6.4 16 2.7 1-.7 1.9-1.6 2.7-2.7.5-.8.5-1.8 0-2.6z" fill="#87d147"/><ellipse cx="200.6" cy="87.5" fill="#ef4460" rx="5.1" ry="5.1" transform="matrix(.99 -.138 .138 .99 -10.179 28.579)"/><ellipse cx="155.3" cy="87.6" fill="#ef4460" rx="5.1" ry="5.1" transform="matrix(.138 -.99 .99 .138 47.051 229.308)"/><path d="m238.5 214.5h-120.8c-8.3 0-15-6.7-15-15v-25.1c0-8.3 6.7-15 15-15h120.8c8.3 0 15 6.7 15 15v25.1c0 8.3-6.7 15-15 15z" fill="#f9bd95"/><g fill="#fca265"><path d="m117.7 169.4c-2.7 0-5 2.2-5 5v25.1c0 2.7 2.2 5 5 5h60.4v-35.1z"/><path d="m117.7 169.4c-2.7 0-5 2.2-5 5v25.1c0 2.7 2.2 5 5 5h60.4v-35.1z"/><path d="m238.5 169.4c2.7 0 5 2.2 5 5v25.1c0 2.7-2.2 5-5 5h-60.4v-35.1z"/><path d="m235.7 214.5h-12.4l6.3 11c1.5 2.6 4.8 3.5 7.4 2s3.5-4.8 2-7.4z"/><path d="m120.5 214.5-3.2 5.6c-1.5 2.6-.6 5.9 2 7.4s5.9.6 7.4-2l6.3-11z"/><path d="m22.4 201.3-3.1 5.4c-1.5 2.6-.6 5.9 2 7.4s5.9.6 7.4-2l6.2-10.8z"/></g><circle cx="178.1" cy="36.1" fill="#70d6f9" r="3.1"/><circle cx="210.1" cy="133.1" fill="#87d147" r="3.1"/><circle cx="77.1" cy="218.1" fill="#f5c84c" r="3.1"/><path d="m174.8 55.4c-4-.7-7.2-3.8-8-7.8 0-.1-.1-.2-.2-.1-.1 0-.1.1-.1.1-.8 4-4 7.1-8 7.8-.1 0-.2.1-.2.2s.1.1.2.2c4 .7 7.2 3.8 8 7.8 0 .1.1.2.2.1.1 0 .1-.1.1-.1.8-4 4-7.1 8-7.8.1 0 .2-.1.2-.2 0-.2-.1-.2-.2-.2z" fill="#f5c84c"/><path d="m56.2 221.7h-2.1v-2.1c0-1.6-1.3-2.9-2.9-2.9s-2.9 1.3-2.9 2.9v2.1h-2.1c-1.6 0-2.9 1.3-2.9 2.9s1.3 2.9 2.9 2.9h2.1v2.1c0 1.6 1.3 2.9 2.9 2.9s2.9-1.3 2.9-2.9v-2.1h2.1c1.6 0 2.9-1.3 2.9-2.9s-1.3-2.9-2.9-2.9z" fill="#fc657e"/><path d="m238.5 166.9h-120.8c-4.1 0-7.5 3.3-7.5 7.5v25.1c0 4.1 3.3 7.5 7.5 7.5h120.8c4.1 0 7.5-3.3 7.5-7.5v-25.1c0-4.2-3.4-7.5-7.5-7.5zm-123.3 32.6v-25.1c0-1.4 1.1-2.5 2.5-2.5h57.9v30.1h-57.9c-1.4 0-2.5-1.1-2.5-2.5zm125.8 0c0 1.4-1.1 2.5-2.5 2.5h-57.9v-30.1h57.9c1.4 0 2.5 1.1 2.5 2.5z"/><path d="m238.5 156.9h-41.8c.2-.6.2-1.2.2-1.8v-22.3c0-3.7-3-6.8-6.8-6.8h-8.7c.4-2.5.9-4.8 1.5-7 5.4 5.5 14.2 5.5 19.7 0 .6-.6 1.1-1.2 1.5-1.8 1.2-1.7 1.2-3.9 0-5.5-3.8-5.3-10.7-7.3-16.8-4.8.9-1.8 1.9-3.6 3-5.3 1.4.5 2.8.6 4.3.3 2.8 3.9 8.3 4.8 12.2 2 1.4-1 2.5-2.5 3.1-4.2 4.8-.5 8.3-4.8 7.9-9.6-.2-1.8-.9-3.4-2-4.8 2-4.4 0-9.6-4.4-11.6-1.6-.7-3.4-1-5.2-.6-2.8-3.9-8.3-4.8-12.2-2-1.4 1-2.5 2.5-3.1 4.2-4.8.5-8.3 4.8-7.9 9.6.2 1.8.9 3.4 2 4.8-1.3 3-.9 6.4 1.1 9 0 0 .1.1.1.1-3.8 6.2-6.7 13-8.4 20.1-1.8-7.1-4.6-13.8-8.4-20 0 0 .1-.1.1-.1 2-2.6 2.4-6 1.1-9 3.1-3.7 2.7-9.2-1-12.3-1.4-1.1-3-1.9-4.8-2-1.6-4.6-6.6-6.9-11.2-5.3-1.7.6-3.1 1.7-4.2 3.2-1.2-.2-2.5-.2-3.7.1v-33.6c0-9.4-7.5-16.5-17.5-16.5h-110.7c-10 0-17.5 7.1-17.5 16.5v146.4c0 9.7 7.8 17.5 17.5 17.5h.6l-.9 1.6c-2.2 3.8-.9 8.6 2.9 10.8s8.6.9 10.8-2.9l5.5-9.5h64.5c1.8 7.2 8 12.5 15.5 13.1l-1.1 1.9c-2.2 3.8-.9 8.6 2.9 10.8s8.6.9 10.8-2.9l5.6-9.7h87.4l5.6 9.7c2.2 3.8 7 5.1 10.8 2.9s5.1-7 2.9-10.8l-1.1-1.9c9.1-.8 16-8.3 16-17.4v-25.1c-.2-9.7-8-17.5-17.7-17.5zm-38.4-42.4c-3 4-8.6 4.8-12.5 1.8-.7-.5-1.3-1.1-1.8-1.8 3-4 8.6-4.8 12.5-1.9.7.6 1.3 1.2 1.8 1.9zm-8.1 18.3v22.3c0 1-.8 1.8-1.8 1.8h-24.4c-1 0-1.8-.8-1.8-1.8v-22.3c0-1 .8-1.8 1.8-1.8h24.4c1 0 1.8.8 1.8 1.8zm-46.2-32.9c1.7 4.5 6.7 6.9 11.2 5.2 1.7-.6 3.1-1.7 4.1-3.1 1.4.3 2.9.1 4.3-.3 4.5 7.4 7.6 15.7 8.9 24.3h-8.5c-3.7 0-6.8 3-6.8 6.8v22.3c0 .6.1 1.2.2 1.8h-13.5zm46.3-19.6c1.7.1 3.2-1.1 3.5-2.7.4-2 2.4-3.4 4.4-3 1.1.2 2.1 1 2.6 2 .8 1.5 2.5 2.2 4.1 1.7 2-.7 4.1.4 4.8 2.4.4 1.1.2 2.3-.4 3.2-.9 1.4-.7 3.3.6 4.4 1.6 1.4 1.7 3.7.4 5.3-.8.9-1.9 1.3-3 1.3-1.7-.1-3.2 1.1-3.5 2.7-.4 2-2.4 3.4-4.4 3-1.1-.2-2.1-1-2.6-2-.8-1.5-2.5-2.2-4.1-1.7-2 .7-4.1-.4-4.8-2.3-.4-1.1-.2-2.3.4-3.3.9-1.4.7-3.3-.6-4.4-1.6-1.4-1.7-3.7-.4-5.3.7-.9 1.9-1.4 3-1.3zm-43-2c1.6.5 3.4-.2 4.1-1.7.9-1.8 3.2-2.6 5-1.6 1 .5 1.8 1.5 2 2.6.3 1.7 1.8 2.8 3.5 2.7 2.1-.1 3.8 1.5 3.9 3.6.1 1.1-.4 2.3-1.3 3-1.3 1.1-1.5 3-.6 4.4 1.1 1.7.6 4.1-1.1 5.2-1 .6-2.2.8-3.3.4-1.6-.5-3.4.2-4.1 1.7-.9 1.8-3.2 2.6-5 1.6-1-.5-1.8-1.5-2-2.6-.3-1.7-1.8-2.8-3.5-2.7-2.1.1-3.8-1.5-3.9-3.6-.1-1.2.4-2.3 1.3-3 1.3-1.1 1.5-3 .6-4.4-1.1-1.7-.6-4.1 1.1-5.2 1-.6 2.2-.8 3.3-.4zm-122.6 132.5c-.8 1.4-2.6 1.9-3.9 1.1-1.4-.8-1.9-2.6-1.1-3.9l2.4-4.1h6.7zm-9-12c-6.9 0-12.5-5.6-12.5-12.5v-146.4c0-6.7 5.2-11.5 12.5-11.5h110.8c7.2 0 12.5 4.8 12.5 11.5v36.9c-1.8 2.6-2.1 5.9-.8 8.7-3.1 3.6-2.7 9 .8 12.2v59.2h-5v-116c0-4.2-3.4-7.6-7.6-7.6h-110.6c-4.2 0-7.6 3.4-7.6 7.6v145.4c0 4.1 3.3 7.5 7.5 7.5h82.7v5zm36-160.5h37.7v1.5c0 1.2-1 2.1-2.1 2.1h-33.4c-1.2 0-2.1-1-2.1-2.1zm2.2 8.7h33.4c3.9 0 7.1-3.2 7.1-7.1v-1.5h31.9c1.4 0 2.6 1.2 2.6 2.6v23.3h-115.7v-23.4c0-1.4 1.2-2.6 2.6-2.6h30.9v1.5c0 4 3.2 7.2 7.2 7.2zm-2.2 84h37.7v1.5c0 1.2-1 2.1-2.1 2.1h-33.4c-1.2 0-2.1-1-2.1-2.1zm-38.5-5v-25.9h33.5v1.5c0 3.9 3.2 7.1 7.1 7.1h33.4c3.9 0 7.1-3.2 7.1-7.1v-1.5h34.5v25.9zm38.5-56.8h37.7v1.5c0 1.2-1 2.1-2.1 2.1h-33.4c-1.2 0-2.1-1-2.1-2.1zm2.2 8.7h33.4c3.9 0 7.1-3.2 7.1-7.1v-1.5h34.5v25.9h-115.7v-26h33.5v1.5c0 4 3.2 7.2 7.2 7.2zm-2.2 22.2h37.7v1.5c0 1.2-1 2.1-2.1 2.1h-33.4c-1.2 0-2.1-1-2.1-2.1zm-38.5 61.8h33.5v1.5c0 3.9 3.2 7.1 7.1 7.1h33.4c3.9 0 7.1-3.2 7.1-7.1v-1.5h9.2c-3.3 3.3-5.2 7.8-5.3 12.5v14.4h-82.5c-1.4 0-2.5-1.1-2.5-2.5zm38.5 0h37.7v1.5c0 1.2-1 2.1-2.1 2.1h-33.4c-1.2 0-2.1-1-2.1-2.1v-1.5zm-38.5-5v-25.9h33.5v1.5c0 3.9 3.2 7.1 7.1 7.1h33.4c3.9 0 7.1-3.2 7.1-7.1v-1.5h34.5v25.9zm109.5 67.3c-.8 1.4-2.6 1.9-3.9 1.1-1.4-.8-1.9-2.6-1.1-3.9l2.5-4.3h6.7zm111.2 1c-1.4.8-3.1.3-3.9-1.1l-4.2-7.2h6.7l2.5 4.3c.7 1.5.3 3.2-1.1 4zm15.3-25.7c0 6.9-5.6 12.5-12.5 12.5h-120.8c-6.9 0-12.5-5.6-12.5-12.5v-25.1c0-6.9 5.6-12.5 12.5-12.5h120.8c6.9 0 12.5 5.6 12.5 12.5z"/><path d="m148.4 178.6h-6c-1.4 0-2.5 1.1-2.5 2.5s1.1 2.5 2.5 2.5h6c1.4 0 2.5-1.1 2.5-2.5s-1.1-2.5-2.5-2.5z"/><path d="m213.8 178.6h-6c-1.4 0-2.5 1.1-2.5 2.5s1.1 2.5 2.5 2.5h6c1.4 0 2.5-1.1 2.5-2.5s-1.1-2.5-2.5-2.5z"/><path d="m201.6 95c4.1-.6 7-4.4 6.4-8.5s-4.4-7-8.5-6.4-7 4.4-6.4 8.5 4.4 7 8.5 6.4zm-1.4-10c1.4-.2 2.7.8 2.9 2.2s-.8 2.7-2.2 2.9-2.7-.8-2.9-2.2c-.1-1.4.8-2.7 2.2-2.9z"/><path d="m155.3 95.2c4.2 0 7.6-3.4 7.6-7.6s-3.4-7.6-7.6-7.6c-3.8 0-7 2.8-7.5 6.5-.6 4.1 2.3 8 6.5 8.5.3.2.7.2 1 .2zm-2.5-7.9c0-1.7 1.3-3 3-3s3 1.3 3 3-1.3 3-3 3-3-1.4-3-3z"/></g></g></svg>