<svg id="Layer_1" enable-background="new 0 0 256 256" height="512" viewBox="0 0 256 256" width="512" xmlns="http://www.w3.org/2000/svg"><g id="Layer_70"><g><path d="m28.9 223.8h209.1c2.5 0 4.4 2 4.4 4.4v10.4h-218v-10.4c.1-2.4 2-4.4 4.5-4.4z" fill="#c7d7e5"/><path d="m246 238.6h-225c-2.5 0-4.4 2-4.4 4.4v6.4c0 2.2 1.8 4 4 4h225.9c2.2 0 4-1.8 4-4v-6.4c-.1-2.4-2.1-4.4-4.5-4.4z" fill="#edf4fc"/><path d="m235.4 223.8v-135.3c-2.1.8-4.3 1.1-6.5 1.1-10.5 0-19.1-8.6-19.1-19.1 0 10.5-8.6 19.1-19.1 19.1-10.5 0-19.1-8.5-19.1-19.1 0 10.5-8.5 19.1-19.1 19.1-10.5 0-19.1-8.5-19.1-19.1 0 10.5-8.5 19.1-19.1 19.1-10.5 0-19.1-8.5-19.1-19.1 0 10.5-8.5 19.1-19.1 19.1s-19.1-8.5-19.1-19.1c0 3.6-1 7-2.9 10.1-.2.3-.4.7-.7 1-4.9 7-14 9.8-22 6.9v135.3z" fill="#ef4460"/><g fill="#9be5f9"><path d="m89.5 223.8h88v-70c0-1.8-1.5-3.3-3.3-3.3h-81.4c-1.8 0-3.3 1.5-3.3 3.3z"/><path d="m193.8 150.5h25.4c1.8 0 3.3 1.5 3.3 3.3v54.4c0 1.8-1.5 3.3-3.3 3.3h-25.4c-1.8 0-3.3-1.5-3.3-3.3v-54.4c0-1.8 1.5-3.3 3.3-3.3z"/><path d="m47.8 150.5h25.4c1.8 0 3.3 1.5 3.3 3.3v54.4c0 1.8-1.5 3.3-3.3 3.3h-25.4c-1.8 0-3.3-1.5-3.3-3.3v-54.4c0-1.8 1.5-3.3 3.3-3.3z"/></g><path d="m89.5 223.8h44v-73.3h-40.7c-1.8 0-3.3 1.5-3.3 3.3z" fill="#70d6f9"/><path d="m77.6 100.5h111.8c1.3 0 2.4 1.1 2.4 2.4v34.2c0 1.3-1.1 2.4-2.4 2.4h-111.8c-1.3 0-2.4-1.1-2.4-2.4v-34.2c0-1.3 1-2.4 2.4-2.4z" fill="#f5c84c"/><path d="m24.3 27.5c-3 0-5.5 2.4-5.5 5.5v37.6c0 10.5 8.6 19.1 19.1 19.1s19.1-8.5 19.1-19.1v-43.1z" fill="#f5c84c"/><path d="m57.1 27.5h38.2v43.1c0 10.5-8.5 19.1-19.1 19.1-10.5 0-19.1-8.5-19.1-19.1z" fill="#fc8c48"/><path d="m95.3 27.5h38.2v43.1c0 10.5-8.5 19.1-19.1 19.1-10.5 0-19.1-8.5-19.1-19.1z" fill="#f5c84c"/><path d="m133.5 27.5h38.2v43.1c0 10.5-8.5 19.1-19.1 19.1-10.5 0-19.1-8.5-19.1-19.1z" fill="#fc8c48"/><path d="m171.7 27.5h38.2v43.1c0 10.5-8.5 19.1-19.1 19.1-10.5 0-19.1-8.5-19.1-19.1z" fill="#f5c84c"/><path d="m242.6 27.5h-32.7v43.1c0 10.5 8.5 19.1 19.1 19.1 10.5 0 19.1-8.5 19.1-19.1v-37.7c-.1-3-2.5-5.4-5.5-5.4z" fill="#fc8c48"/><path d="m18.9 65.2v5.4c0 10.5 8.6 19.1 19.1 19.1s19-8.5 19.1-19.1v-5.4z" fill="#fcdd86"/><path d="m57.1 65.2v5.4c0 10.5 8.6 19.1 19.1 19.1s19-8.5 19.1-19.1v-5.4z" fill="#fca265"/><path d="m95.3 65.2v5.4c0 10.5 8.5 19.1 19.1 19.1 10.5 0 19.1-8.5 19.1-19.1v-5.4z" fill="#fcdd86"/><path d="m133.5 65.2v5.4c0 10.5 8.5 19.1 19.1 19.1 10.5 0 19.1-8.5 19.1-19.1v-5.4z" fill="#fca265"/><path d="m171.7 65.2v5.4c0 10.5 8.5 19.1 19.1 19.1 10.5 0 19.1-8.5 19.1-19.1v-5.4z" fill="#fcdd86"/><path d="m209.9 65.2v5.4c0 10.5 8.5 19.1 19.1 19.1 10.5 0 19.1-8.5 19.1-19.1v-5.4z" fill="#fca265"/><circle cx="149.8" cy="13.4" fill="#f5c84c" r="3.1"/><circle cx="252.9" cy="106.4" fill="#87d147" r="3.1"/><circle cx="13.8" cy="159.4" fill="#70d6f9" r="3.1"/><path d="m17.8 186.9c-4.3.8-7.8 4.1-8.6 8.5 0 .1-.1.2-.2.2s-.1-.1-.2-.2c-.9-4.3-4.3-7.7-8.6-8.5-.1 0-.2-.1-.2-.2s.1-.1.2-.2c4.3-.8 7.8-4.1 8.6-8.5 0-.1.1-.2.2-.2s.1.1.2.2c.9 4.3 4.3 7.7 8.6 8.5.1 0 .2.1.2.2s-.1.2-.2.2z" fill="#f5c84c"/><path d="m184.7 5h-2.1v-2.1c0-1.6-1.3-2.9-2.9-2.9s-2.9 1.3-2.9 2.9v2.1h-2.1c-1.6 0-2.9 1.3-2.9 2.9s1.3 2.9 2.9 2.9h2.1v2.2c0 1.6 1.3 2.9 2.9 2.9s2.9-1.3 2.9-2.9v-2.1h2.1c1.6 0 2.9-1.3 2.9-2.9s-1.3-3-2.9-3z" fill="#ef4460"/><path d="m102.2 118.7c-2.2-1.1-3.8-1.3-5.6-2.1-2.5-1.1-1.9-4.2.9-4.2.7 0 1.4.2 2 .6.5.4.8.9.9 1.5.1.5.5.8 1 .8h2.8c.6 0 1-.5 1-1v-.1c-.4-3.3-3.1-5.9-7.7-5.9-8.3 0-9.2 9.1-3.8 11.7 2 1 4.1 1.4 5.6 2.1 1.3.4 1.9 1.8 1.5 3-.1.3-.3.6-.5.8-1.4 1.4-4.9.6-5.1-2-.1-.5-.5-.9-1-.9h-2.7c-.6 0-1 .5-1 1v.1c.8 8.6 15.2 8.7 15.2.1 0-2.2-1.3-4.4-3.5-5.5z"/><path d="m117.7 109.6c-.1-.4-.5-.6-.9-.6h-2.9c-.4 0-.8.3-.9.6l-7.3 19.6c-.2.5.1 1.1.6 1.3.1 0 .2.1.4.1h2.8c.4 0 .8-.3.9-.7l1.4-4h7.4l1.4 3.9c.1.4.5.7.9.7h2.8c.6 0 1-.4 1-1 0-.1 0-.2-.1-.4zm-.1 12.3h-4.4l2.2-6.1z"/><path d="m137.1 126.8c-.2-.2-.4-.3-.7-.3h-6.1v-16.9c0-.6-.4-1-1-1h-2.6c-.6 0-1 .5-1 1v19.9c0 .6.4 1 1 1h9.6c.6 0 1-.4 1-1v-2c.1-.3 0-.5-.2-.7z"/><path d="m150.1 126.4h-7.4v-5h6.6c.6 0 1-.4 1-1v-2c0-.6-.4-1-1-1h-6.6v-4.8h7.4c.6 0 1-.4 1-1v-2.1c0-.6-.4-1-1-1h-11c-.6 0-1 .4-1 1v19.9c0 .6.4 1 1 1h11c.6 0 1-.4 1-1v-2.1c0-.5-.5-.9-1-.9z"/><path d="m175.5 121.7c-1-.9-2.3-1.5-3.7-1.4-1 0-1.9.2-2.8.7l6.3-11.1c.3-.5.1-1.1-.4-1.4-.2-.1-.3-.1-.5-.1h-2.5c-.4 0-.7.2-.9.5l-2.7 4.7c0-.1 0-.2 0-.3.1-2.7-2-5.1-4.8-5.2-.1 0-.2 0-.4 0-2.9-.1-5.2 2.2-5.3 5.1s2.2 5.2 5.1 5.3h.2c1 0 1.9-.2 2.7-.7l-6.3 11.1c-.3.5-.1 1.1.4 1.4.2.1.3.1.5.1h2.5c.4 0 .7-.2.9-.5l2.7-4.8v.4c-.1 2.7 2 5.1 4.8 5.2h.4c1.4 0 2.7-.5 3.7-1.4 2.1-2.2 2.1-5.5.1-7.6zm-12.2-6.8c-.3 0-.7-.1-.9-.4-.5-.7-.5-1.6 0-2.3.2-.3.6-.4.9-.4.4 0 .7.1 1 .4.5.7.5 1.6 0 2.3-.3.3-.6.5-1 .4zm8.6 12.1c-.4 0-.7-.1-.9-.4-.5-.7-.5-1.6 0-2.3.2-.3.6-.4.9-.4.3 0 .7.1.9.4.5.7.5 1.6 0 2.3-.2.3-.6.4-.9.4z"/><path d="m246 236.1h-1v-7.9c0-3.8-3.1-6.9-6.9-6.9h-.1v-131.1c7.7-3.5 12.6-11.2 12.6-19.6v-37.7c0-4.4-3.6-8-8-8h-218.3c-4.4 0-8 3.6-8 8v37.6c0 8.5 5 16.1 12.6 19.6v131.1h-.1c-3.8 0-6.9 3.1-6.9 6.9v7.9h-1c-3.8 0-6.9 3.1-6.9 6.9v6.4c0 3.6 2.9 6.5 6.5 6.5h225.9c3.6 0 6.5-2.9 6.5-6.5v-6.4c0-3.7-3.1-6.8-6.9-6.8zm-55.2-148.9c-9.2 0-16.6-7.4-16.6-16.6v-2.9h33.2v2.9c-.1 9.1-7.5 16.5-16.6 16.6zm-38.2 0c-9.2 0-16.6-7.4-16.6-16.6v-2.9h33.2v2.9c0 9.1-7.5 16.5-16.6 16.6zm-38.2 0c-9.2 0-16.6-7.4-16.6-16.6v-2.9h33.2v2.9c0 9.1-7.5 16.5-16.6 16.6zm-54.8-19.5h33.2v2.9c0 9.2-7.4 16.6-16.6 16.6s-16.6-7.4-16.6-16.6zm186 2.9c0 9.2-7.4 16.6-16.6 16.6s-16.6-7.4-16.6-16.6v-2.9h33.2zm0-37.7v29.8h-33.2v-32.7h30.2c1.6 0 2.9 1.3 3 2.9zm-38.2 29.8h-33.2v-32.7h33.2zm-38.2 0h-33.2v-32.7h33.2zm-38.2 0h-33.2v-32.7h33.2zm-38.2 0h-33.2v-32.7h33.2zm-68.5-32.7h30.2v32.7h-33.1v-29.8c0-1.6 1.3-2.9 2.9-2.9zm-2.9 40.6v-2.9h33.2v2.9c0 9.2-7.4 16.6-16.6 16.6-9.2-.1-16.6-7.5-16.6-16.6zm12.6 21.2c1.3.2 2.6.4 3.9.4 8 0 15.3-4.4 19.1-11.5 5.6 10.6 18.6 14.6 29.2 9 3.8-2 7-5.2 9-9 5.6 10.5 18.6 14.6 29.2 9 3.8-2 7-5.2 9-9 5.6 10.5 18.6 14.6 29.2 9 3.8-2 7-5.2 9-9 5.6 10.5 18.6 14.6 29.2 9 3.8-2 7-5.2 9-9 4.4 8.4 13.8 12.9 23.1 11.1v129.5h-52.9v-67.5c0-3.2-2.6-5.8-5.8-5.8h-81.4c-3.2 0-5.8 2.6-5.8 5.8v67.5h-53zm97 129.5h-39v-67.5c0-.4.4-.8.8-.8h38.2zm5-68.3h38.2c.4 0 .8.4.8.8v67.5h-39zm-109 75.2c0-1.1.9-1.9 1.9-1.9h209.1c1.1 0 1.9.9 1.9 1.9v7.9h-212.9zm220.9 21.3c0 .8-.7 1.5-1.5 1.5h-225.9c-.8 0-1.5-.7-1.5-1.5v-6.4c0-1.1.9-1.9 1.9-1.9h225c1.1 0 1.9.9 1.9 1.9z"/><path d="m188 153.8v54.4c0 3.2 2.6 5.8 5.8 5.8h25.4c3.2 0 5.8-2.6 5.8-5.8v-54.4c0-3.2-2.6-5.8-5.8-5.8h-25.4c-3.2 0-5.8 2.6-5.8 5.8zm32 0v54.4c0 .4-.4.8-.8.8h-25.4c-.4 0-.8-.4-.8-.8v-54.4c0-.4.4-.8.8-.8h25.4c.4 0 .8.4.8.8z"/><path d="m73.2 148h-25.4c-3.2 0-5.8 2.6-5.8 5.8v54.4c0 3.2 2.6 5.8 5.8 5.8h25.4c3.2 0 5.8-2.6 5.8-5.8v-54.4c0-3.2-2.6-5.8-5.8-5.8zm.8 60.2c0 .4-.4.8-.8.8h-25.4c-.4 0-.8-.4-.8-.8v-54.4c0-.4.4-.8.8-.8h25.4c.4 0 .8.4.8.8z"/><path d="m77.6 142h111.8c2.7 0 4.9-2.2 4.9-4.9v-34.2c0-2.7-2.2-4.9-4.9-4.9h-111.8c-2.7 0-4.9 2.2-4.9 4.9v34.2c0 2.7 2.2 4.9 4.9 4.9zm.1-39h111.6v34h-111.6z"/></g></g></svg>